# xmcd
# Track frame offsets:
# 150
# 14560
# 33835
# 54536
# 70962
# 90313
# 110488
# 130513
# 144538
# 164262
# 179787
# 198237
# 215713
# 236714
#
# Disc length: 3376 seconds
# Revision: 0
# Processed by: cddbd v1.5.1PL0 Copyright (c) Steve Scherf et al.
# Submitted via: VisiTrax 2.9.10.228 - For more info visit www.synapsa.com
#
DISCID=c80d2e0e
DTITLE=Kenny Rogers - LG021
DYEAR=1900
DGENRE=Karaoke
TTITLE0=Rogers, Kenny - Ruby, Don't Take Your Love To Town
TTITLE1=Rogers, Kenny - Lucille
TTITLE2=Rogers, Kenny - Coward Of The County
TTITLE3=Rogers, Kenny - Just Dropped In
TTITLE4=Rogers, Kenny - Lady
TTITLE5=Rogers, Kenny - Something Burning
TTITLE6=Rogers, Kenny - She Believes In Me
TTITLE7=Rogers, Kenny - Islands In The Stream
TTITLE8=Rogers, Kenny - Day Time Friends
TTITLE9=Rogers, Kenny - We've Got Tonight
TTITLE10=Rogers, Kenny - You Decorated My Life
TTITLE11=Rogers, Kenny - I Don't Need You
TTITLE12=Rogers, Kenny - Through The Years
TTITLE13=Rogers, Kenny - Love Will Turn You Around
EXTD=
EXTT0=
EXTT1=
EXTT2=
EXTT3=
EXTT4=
EXTT5=
EXTT6=
EXTT7=
EXTT8=
EXTT9=
EXTT10=
EXTT11=
EXTT12=
EXTT13=
PLAYORDER=
